<svg width="651" height="800" viewBox="0 0 651 800" fill="none" xmlns="http://www.w3.org/2000/svg">
<g clip-path="url(#clip0_612_1633)">
<path d="M630.286 272.72C625.648 276.32 543.753 322.48 543.753 425.12C543.753 543.84 647.961 585.84 651.08 586.88C650.6 589.44 634.525 644.4 596.137 700.4C561.907 749.68 526.158 798.88 471.775 798.88C417.392 798.88 403.396 767.28 340.615 767.28C279.434 767.28 257.681 799.92 207.936 799.92C158.191 799.92 123.482 754.32 83.5743 698.32C37.3485 632.56 0 530.4 0 433.44C0 277.92 101.089 195.44 200.578 195.44C253.442 195.44 297.509 230.16 330.698 230.16C362.289 230.16 411.554 193.36 471.695 193.36C494.488 193.36 576.383 195.44 630.286 272.72ZM443.144 127.52C468.016 98 485.611 57.04 485.611 16.08C485.611 10.4 485.131 4.64 484.091 0C443.624 1.52 395.479 26.96 366.447 60.64C343.654 86.56 322.381 127.52 322.381 169.04C322.381 175.28 323.421 181.52 323.901 183.52C326.46 184 330.618 184.56 334.777 184.56C371.086 184.56 416.752 160.24 443.144 127.52Z" fill="black"/>
</g>
<defs>
<clipPath id="clip0_612_1633">
<rect width="651" height="800" fill="white"/>
</clipPath>
</defs>
</svg>
