<svg width="120" height="32" viewBox="0 0 120 32" fill="none" xmlns="http://www.w3.org/2000/svg">
<path d="M7.07129 24.6228C3.05623 24.6228 0.419483 22.5554 0 19.2594H2.78657C3.05623 21.7164 4.49446 23.1846 7.10125 23.1846C8.929 23.1846 10.2474 22.4355 10.2474 20.9973C10.2474 19.4092 8.95896 18.8999 5.90273 17.7613C3.17609 16.7725 0.838966 15.7238 0.838966 13.0571C0.838966 10.5402 3.14612 8.95212 6.47202 8.95212C10.0376 8.95212 12.3148 10.63 12.8542 13.3867H10.0376C9.79792 11.5889 8.65933 10.3604 6.35217 10.3604C4.64428 10.3604 3.53564 11.1095 3.53564 12.3679C3.53564 13.926 5.00383 14.5552 7.70051 15.514C10.9066 16.6526 13.004 17.7313 13.004 20.3381C13.004 23.1846 10.3972 24.6228 7.07129 24.6228Z" fill="white"/>
<path d="M19.3618 24.503C16.8149 24.503 14.9872 23.2145 14.9872 20.6377C14.9872 17.9111 17.1145 16.9223 20.83 15.8436C23.6465 15.0346 25.0547 14.6451 25.0847 12.7275C25.0847 11.1394 24.066 10.3005 22.2382 10.3005C20.2307 10.3005 18.4029 11.4391 18.373 14.2556H15.5265C15.7662 10.7799 18.9423 8.92215 22.5079 8.92215C25.5941 8.92215 28.0511 10.2405 28.0511 13.8661V20.368C28.0511 22.046 28.5604 22.7052 29.4593 22.7052C29.8788 22.7052 30.2084 22.5853 30.538 22.3156V23.4243C29.9387 23.9936 29.1597 24.3531 28.111 24.3531C26.463 24.3531 25.1147 23.2745 25.1147 20.6377V20.2782C24.3356 22.5554 22.418 24.503 19.3618 24.503ZM17.9535 20.2482C17.9535 21.8962 19.0322 22.5853 20.3206 22.5853C23.1371 22.5853 25.0847 20.0684 25.0847 16.7725V15.2444C24.6053 16.0833 23.3768 16.4429 21.609 17.0421C19.2119 17.8212 17.9535 18.4804 17.9535 20.2482Z" fill="white"/>
<path d="M31.5773 31.3046V31.1847C32.626 30.5555 32.7759 29.6266 32.7759 27.709V13.0571C32.7759 11.0495 32.626 10.2106 31.5773 9.55138V9.46149H36.2815C35.922 10.1207 35.8321 10.9896 35.8321 12.8773C36.731 10.6001 38.5587 8.95212 41.3753 8.95212C45.2705 8.95212 47.4578 12.2481 47.4578 16.5927C47.4578 21.0872 45.0008 24.3831 41.0756 24.3831C38.8284 24.3831 36.8808 23.3344 35.8321 21.4767V27.709C35.8321 29.6266 36.0119 30.5555 37.0606 31.1847V31.3046H31.5773ZM35.8321 19.8587C36.6711 21.6864 38.2291 22.8849 40.0868 22.8849C42.7835 22.8849 44.3416 20.428 44.3416 16.6227C44.3416 13.3267 43.1131 10.69 40.3266 10.69C37.4501 10.69 35.8621 13.4166 35.8621 17.0721L35.8321 17.0421V19.8587Z" fill="white"/>
<path d="M49.6605 31.3046V31.1847C50.7092 30.5555 50.859 29.6266 50.859 27.709V13.0571C50.859 11.0495 50.7092 10.2106 49.6605 9.55138V9.46149H54.3647C54.0052 10.1207 53.9153 10.9896 53.9153 12.8773C54.8142 10.6001 56.6419 8.95212 59.4584 8.95212C63.3536 8.95212 65.5409 12.2481 65.5409 16.5927C65.5409 21.0872 63.084 24.3831 59.1588 24.3831C56.9116 24.3831 54.964 23.3344 53.9153 21.4767V27.709C53.9153 29.6266 54.0951 30.5555 55.1438 31.1847V31.3046H49.6605ZM53.9153 19.8587C54.7542 21.6864 56.3123 22.8849 58.17 22.8849C60.8667 22.8849 62.4248 20.428 62.4248 16.6227C62.4248 13.3267 61.1963 10.69 58.4097 10.69C55.5333 10.69 53.9452 13.4166 53.9452 17.0721L53.9153 17.0421V19.8587Z" fill="white"/>
<path d="M67.8935 24.1134V23.9936C69.0022 23.2745 69.152 22.2258 69.152 20.0984V4.72732C69.152 2.92954 68.9422 1.97072 68.0433 1.28157V1.16172L72.388 0.652344L72.4179 0.772196C72.2681 1.67109 72.2082 2.36024 72.2082 4.72732V12.6975C73.1371 10.63 75.0247 8.95212 77.8413 8.95212C80.7477 8.95212 82.5455 10.5402 82.5455 14.6151V20.0984C82.5455 22.2258 82.6953 23.2745 83.714 23.9936V24.1134H78.3806V23.9936C79.3394 23.2745 79.4892 22.2258 79.4892 20.0984V14.6751C79.4892 11.9484 78.4705 10.7799 76.4929 10.7799C74.1858 10.7799 72.6576 12.5776 72.2082 14.705V20.0984C72.2082 22.2258 72.358 23.2745 73.4367 23.9936V24.1134H67.8935Z" fill="white"/>
<path d="M85.9781 24.1134V23.9936C87.0268 23.2745 87.1766 22.2557 87.1766 20.0984L87.2066 13.4166C87.2066 11.1694 87.0867 10.2705 86.1279 9.6113V9.49145L90.2628 9.28171V20.0984C90.2628 22.2258 90.4126 23.2745 91.4613 23.9936V24.1134H85.9781Z" fill="white"/>
<path d="M93.9078 24.1134V23.9936C94.9565 23.2745 95.1363 22.2258 95.1363 20.0984V13.4765C95.1363 11.2293 94.9565 10.3005 93.9078 9.55138V9.46149H98.612C98.2524 10.2405 98.1925 11.2293 98.1925 13.4765V13.7762C98.7019 11.6488 100.679 9.10193 104.335 9.07197V11.7387C99.9903 11.5889 98.1925 13.7762 98.1925 16.5627V20.2182C98.1925 22.3156 98.3423 23.3044 99.5109 24.0235V24.1134H93.9078Z" fill="white"/>
<path d="M112.749 24.6228C108.494 24.6228 105.438 21.7464 105.438 16.9223C105.438 12.0683 108.644 8.95212 112.899 8.95212C117.273 8.95212 119.94 11.9185 120 16.0833H108.434V16.4129C108.434 20.0085 110.022 22.7052 113.348 22.7052C116.165 22.7052 117.723 20.8475 118.322 18.4804H120C119.341 21.8662 116.974 24.6228 112.749 24.6228ZM108.584 14.6751H117.004C116.764 12.1582 115.386 10.3304 112.899 10.3304C110.532 10.3304 109.034 12.0383 108.584 14.6751Z" fill="white"/>
<circle cx="88.1456" cy="4.91899" r="2.34087" fill="#2665ED"/>
</svg>
