<svg width="120" height="31" viewBox="0 0 120 31" fill="none" xmlns="http://www.w3.org/2000/svg">
<path d="M7.07129 23.9705C3.05623 23.9705 0.419483 21.903 0 18.6071H2.78657C3.05623 21.064 4.49446 22.5322 7.10125 22.5322C8.929 22.5322 10.2474 21.7832 10.2474 20.3449C10.2474 18.7569 8.95896 18.2475 5.90273 17.1089C3.17609 16.1201 0.838966 15.0714 0.838966 12.4047C0.838966 9.88782 3.14612 8.29977 6.47202 8.29977C10.0376 8.29977 12.3148 9.97771 12.8542 12.7343H10.0376C9.79792 10.9365 8.65933 9.70804 6.35217 9.70804C4.64428 9.70804 3.53564 10.4571 3.53564 11.7156C3.53564 13.2736 5.00383 13.9029 7.70051 14.8617C10.9066 16.0003 13.004 17.079 13.004 19.6857C13.004 22.5322 10.3972 23.9705 7.07129 23.9705Z" fill="black"/>
<path d="M19.3618 23.8506C16.8149 23.8506 14.9872 22.5622 14.9872 19.9854C14.9872 17.2587 17.1145 16.27 20.83 15.1913C23.6465 14.3823 25.0547 13.9928 25.0847 12.0751C25.0847 10.4871 24.066 9.64811 22.2382 9.64811C20.2307 9.64811 18.4029 10.7867 18.373 13.6032H15.5265C15.7662 10.1275 18.9423 8.26981 22.5079 8.26981C25.5941 8.26981 28.0511 9.58819 28.0511 13.2137V19.7157C28.0511 21.3936 28.5604 22.0528 29.4593 22.0528C29.8788 22.0528 30.2084 21.933 30.538 21.6633V22.7719C29.9387 23.3412 29.1597 23.7008 28.111 23.7008C26.463 23.7008 25.1147 22.6221 25.1147 19.9854V19.6258C24.3356 21.903 22.418 23.8506 19.3618 23.8506ZM17.9535 19.5959C17.9535 21.2438 19.0322 21.933 20.3206 21.933C23.1371 21.933 25.0847 19.4161 25.0847 16.1201V14.592C24.6053 15.431 23.3768 15.7905 21.609 16.3898C19.2119 17.1688 17.9535 17.828 17.9535 19.5959Z" fill="black"/>
<path d="M31.5773 30.6522V30.5324C32.626 29.9032 32.7759 28.9743 32.7759 27.0567V12.4047C32.7759 10.3972 32.626 9.55822 31.5773 8.89903V8.80914H36.2815C35.922 9.46833 35.8321 10.3373 35.8321 12.2249C36.731 9.94774 38.5587 8.29977 41.3753 8.29977C45.2705 8.29977 47.4578 11.5957 47.4578 15.9404C47.4578 20.4348 45.0008 23.7308 41.0756 23.7308C38.8284 23.7308 36.8808 22.6821 35.8321 20.8243V27.0567C35.8321 28.9743 36.0119 29.9032 37.0606 30.5324V30.6522H31.5773ZM35.8321 19.2063C36.6711 21.0341 38.2291 22.2326 40.0868 22.2326C42.7835 22.2326 44.3416 19.7756 44.3416 15.9703C44.3416 12.6744 43.1131 10.0376 40.3266 10.0376C37.4501 10.0376 35.8621 12.7643 35.8621 16.4198L35.8321 16.3898V19.2063Z" fill="black"/>
<path d="M49.6605 30.6522V30.5324C50.7092 29.9032 50.859 28.9743 50.859 27.0567V12.4047C50.859 10.3972 50.7092 9.55822 49.6605 8.89903V8.80914H54.3647C54.0052 9.46833 53.9153 10.3373 53.9153 12.2249C54.8142 9.94774 56.6419 8.29977 59.4584 8.29977C63.3536 8.29977 65.5409 11.5957 65.5409 15.9404C65.5409 20.4348 63.084 23.7308 59.1588 23.7308C56.9116 23.7308 54.964 22.6821 53.9153 20.8243V27.0567C53.9153 28.9743 54.0951 29.9032 55.1438 30.5324V30.6522H49.6605ZM53.9153 19.2063C54.7542 21.0341 56.3123 22.2326 58.17 22.2326C60.8667 22.2326 62.4248 19.7756 62.4248 15.9703C62.4248 12.6744 61.1963 10.0376 58.4097 10.0376C55.5333 10.0376 53.9452 12.7643 53.9452 16.4198L53.9153 16.3898V19.2063Z" fill="black"/>
<path d="M67.8935 23.4611V23.3412C69.0022 22.6221 69.152 21.5734 69.152 19.446V4.07498C69.152 2.27719 68.9422 1.31838 68.0433 0.629225V0.509373L72.388 0L72.4179 0.119853C72.2681 1.01875 72.2082 1.7079 72.2082 4.07498V12.0452C73.1371 9.97771 75.0247 8.29977 77.8413 8.29977C80.7477 8.29977 82.5455 9.88782 82.5455 13.9628V19.446C82.5455 21.5734 82.6953 22.6221 83.714 23.3412V23.4611H78.3806V23.3412C79.3394 22.6221 79.4892 21.5734 79.4892 19.446V14.0227C79.4892 11.2961 78.4705 10.1275 76.4929 10.1275C74.1858 10.1275 72.6576 11.9253 72.2082 14.0527V19.446C72.2082 21.5734 72.358 22.6221 73.4367 23.3412V23.4611H67.8935Z" fill="black"/>
<path d="M85.9781 23.4611V23.3412C87.0268 22.6221 87.1766 21.6034 87.1766 19.446L87.2066 12.7643C87.2066 10.517 87.0867 9.61815 86.1279 8.95896V8.83911L90.2628 8.62937V19.446C90.2628 21.5734 90.4126 22.6221 91.4613 23.3412V23.4611H85.9781Z" fill="black"/>
<path d="M93.9078 23.4611V23.3412C94.9565 22.6221 95.1363 21.5734 95.1363 19.446V12.8242C95.1363 10.577 94.9565 9.64811 93.9078 8.89903V8.80914H98.612C98.2524 9.58819 98.1925 10.577 98.1925 12.8242V13.1238C98.7019 10.9965 100.679 8.44959 104.335 8.41962V11.0863C99.9903 10.9365 98.1925 13.1238 98.1925 15.9104V19.5659C98.1925 21.6633 98.3423 22.6521 99.5109 23.3712V23.4611H93.9078Z" fill="black"/>
<path d="M112.749 23.9705C108.494 23.9705 105.438 21.094 105.438 16.27C105.438 11.4159 108.644 8.29977 112.899 8.29977C117.273 8.29977 119.94 11.2661 120 15.431H108.434V15.7606C108.434 19.3561 110.022 22.0528 113.348 22.0528C116.165 22.0528 117.723 20.1951 118.322 17.828H120C119.341 21.2139 116.974 23.9705 112.749 23.9705ZM108.584 14.0227H117.004C116.764 11.5058 115.386 9.67807 112.899 9.67807C110.532 9.67807 109.034 11.386 108.584 14.0227Z" fill="black"/>
<circle cx="88.1456" cy="4.26665" r="2.34087" fill="#2665ED"/>
</svg>
